<?xml version="1.0" standalone="no"?>
<!DOCTYPE svg PUBLIC "-//W3C//DTD SVG 20010904//EN"
 "http://www.w3.org/TR/2001/REC-SVG-20010904/DTD/svg10.dtd">
<svg version="1.0" xmlns="http://www.w3.org/2000/svg"
 width="1320.000000pt" height="1320.000000pt" viewBox="0 0 1320.000000 1320.000000"
 preserveAspectRatio="xMidYMid meet">
<metadata>
Created by potrace 1.14, written by Peter Selinger 2001-2017
</metadata>
<g transform="translate(0.000000,1320.000000) scale(0.100000,-0.100000)"
fill="#000000" stroke="none">
<path d="M0 6600 l0 -6600 6600 0 6600 0 0 6600 0 6600 -6600 0 -6600 0 0
-6600z m5585 2305 c105 0 438 2 740 5 487 4 566 2 690 -13 693 -89 1112 -351
1259 -789 35 -103 48 -194 47 -338 0 -235 -63 -447 -190 -640 -52 -79 -198
-227 -288 -292 -203 -146 -521 -270 -793 -309 -116 -17 -126 -25 -39 -33 184
-18 417 -77 557 -142 214 -98 357 -248 453 -474 38 -91 65 -197 169 -661 44
-195 91 -395 105 -443 69 -235 138 -305 293 -294 86 6 121 25 207 108 l70 69
44 -38 45 -38 -42 -51 c-93 -110 -229 -219 -335 -267 -105 -48 -201 -66 -382
-72 -149 -4 -183 -3 -275 17 -255 53 -404 160 -504 364 -60 120 -81 206 -171
681 -84 442 -124 614 -185 783 -53 151 -80 206 -135 275 -54 68 -107 108 -184
139 -53 22 -71 23 -379 26 l-323 3 4 -858 c5 -891 6 -928 48 -1023 46 -104
123 -147 306 -170 48 -6 103 -13 121 -16 l32 -5 0 -65 0 -65 -152 7 c-200 10
-1592 11 -1685 1 l-73 -8 0 65 c0 46 4 66 13 66 41 1 230 31 273 44 132 41
181 117 205 321 7 60 9 698 7 1895 -4 1692 -5 1809 -22 1872 -24 90 -67 153
-125 183 -67 33 -160 56 -263 62 l-88 6 0 64 0 64 378 -8 c207 -4 463 -8 567
-8z"/>
<path d="M6303 8780 c-108 -23 -178 -71 -208 -144 -47 -113 -48 -126 -52
-1101 l-4 -920 293 6 c365 8 456 24 630 116 95 49 220 172 273 267 84 151 134
384 140 651 7 340 -43 582 -161 783 -83 139 -156 207 -294 271 -120 56 -206
73 -400 77 -96 2 -194 -1 -217 -6z"/>
</g>
</svg>
